<mxfile host="app.diagrams.net" modified="2023-10-12T08:05:55.058Z" agent="Mozilla/5.0 (Windows NT 10.0; Win64; x64) AppleWebKit/537.36 (KHTML, like Gecko) Chrome/117.0.0.0 Safari/537.36" etag="eKtnZa5DX7Z1GM0q9c3T" version="22.0.4" type="github">
  <diagram name="第 1 页" id="v9dUQ94RSesRMElzgntV">
    <mxGraphModel dx="2261" dy="758" grid="1" gridSize="10" guides="1" tooltips="1" connect="1" arrows="1" fold="1" page="1" pageScale="1" pageWidth="827" pageHeight="1169" math="0" shadow="0">
      <root>
        <mxCell id="0" />
        <mxCell id="1" parent="0" />
        <mxCell id="TOGtRTezvv8GDTPkBw5l-1" value="开始" style="rounded=0;whiteSpace=wrap;html=1;" vertex="1" parent="1">
          <mxGeometry x="330" y="10" width="120" height="60" as="geometry" />
        </mxCell>
        <mxCell id="TOGtRTezvv8GDTPkBw5l-5" value="" style="edgeStyle=orthogonalEdgeStyle;rounded=0;orthogonalLoop=1;jettySize=auto;html=1;" edge="1" parent="1" source="TOGtRTezvv8GDTPkBw5l-2" target="TOGtRTezvv8GDTPkBw5l-4">
          <mxGeometry relative="1" as="geometry" />
        </mxCell>
        <mxCell id="TOGtRTezvv8GDTPkBw5l-2" value="load命令" style="rounded=0;whiteSpace=wrap;html=1;" vertex="1" parent="1">
          <mxGeometry x="330" y="110" width="120" height="60" as="geometry" />
        </mxCell>
        <mxCell id="TOGtRTezvv8GDTPkBw5l-3" style="edgeStyle=orthogonalEdgeStyle;rounded=0;orthogonalLoop=1;jettySize=auto;html=1;exitX=0.5;exitY=1;exitDx=0;exitDy=0;entryX=0.492;entryY=-0.1;entryDx=0;entryDy=0;entryPerimeter=0;" edge="1" parent="1" source="TOGtRTezvv8GDTPkBw5l-1" target="TOGtRTezvv8GDTPkBw5l-2">
          <mxGeometry relative="1" as="geometry" />
        </mxCell>
        <mxCell id="TOGtRTezvv8GDTPkBw5l-8" style="edgeStyle=orthogonalEdgeStyle;rounded=0;orthogonalLoop=1;jettySize=auto;html=1;entryX=1;entryY=0.5;entryDx=0;entryDy=0;" edge="1" parent="1" source="TOGtRTezvv8GDTPkBw5l-4" target="TOGtRTezvv8GDTPkBw5l-6">
          <mxGeometry relative="1" as="geometry" />
        </mxCell>
        <mxCell id="TOGtRTezvv8GDTPkBw5l-4" value="cli命令行拦截跳入到load方法内" style="rounded=0;whiteSpace=wrap;html=1;" vertex="1" parent="1">
          <mxGeometry x="130" y="110" width="120" height="60" as="geometry" />
        </mxCell>
        <mxCell id="TOGtRTezvv8GDTPkBw5l-6" value="" style="rounded=0;whiteSpace=wrap;html=1;" vertex="1" parent="1">
          <mxGeometry x="-60" y="110" width="120" height="60" as="geometry" />
        </mxCell>
      </root>
    </mxGraphModel>
  </diagram>
</mxfile>
